<svg width="323" height="35" viewBox="0 0 323 35" fill="none" xmlns="http://www.w3.org/2000/svg">
<path d="M3.636 0.799998H4.824V1.988H4.428V1.196H3.636V0.799998ZM16.416 0.799998H17.64V1.988H17.244V1.196H16.416V0.799998ZM26.424 0.799998H27.612V1.196H26.82V2.78H26.424V3.608H26.82V4.796H26.424V5.588H26.028V5.192H25.632V6.38H25.236V7.604H24.84V8.792H24.444V9.98H24.012V11.204H23.616V12.392H23.22V13.58H22.824V14.804H22.428V15.992H22.032V17.18H21.636V18.8H21.24V19.988H20.844V21.176H20.412V22.4H20.016V23.588H19.62V24.38H20.016V24.776H21.24V25.172H22.428V25.604H23.22V26H22.032V25.604H21.636V26H20.844V25.604H20.412V25.172H19.62V24.776H18.828V23.984H19.224V22.796H19.62V22.004H19.224V20.384H18.828V19.196H18.432V18.008H18.036V16.784H17.64V15.596H17.244V14.408H16.812V13.184H16.416V11.996H16.02V10.808H15.624V11.6H15.228V13.184H14.832V11.384H15.048V9.188H14.616V8H14.22V6.38H13.824V5.192H13.428C13.428 5.144 13.416 5.18 13.392 5.3C13.392 5.396 13.38 5.528 13.356 5.696C13.308 5.888 13.272 6.116 13.248 6.38H12.816V7.604H12.42V8.792H12.024V10.376H11.628V11.6H11.232V12.788H10.836V13.976H10.44V15.596H10.044V16.784H9.648V18.404H9.216V19.592H8.82V20.78H8.424V22.004H8.028V23.192H7.632V24.38H8.424V24.776H9.648V25.172H10.836V24.38H11.232V23.192H11.628V22.004H12.024V24.776H11.628V25.172H11.232V26H10.044V25.604H8.82V25.172H8.028V25.604H7.632V24.776H6.84V22.796H6.444V21.572H6.048V19.988H5.616V18.8H5.22V17.576H4.824V15.992H4.428V14.804H4.032V13.184H3.636V12.392H3.24V11.6H3.636V9.98H2.844V9.188H2.448V8H2.016V6.776H1.62V5.192H1.224V4.004H0.828V2.78H0.432V1.988H1.224V3.608H1.62V4.796H2.016V5.984H2.448V7.604H2.844V8.792H3.24V9.584H4.032V12.788H4.428V14.408H4.824V15.596H5.22V16.784H5.616V18.008H6.048V19.196H6.444V21.176H6.84V21.572H7.236V21.176H7.632V19.592H8.028V18.8H8.424V18.008H8.82V16.784H9.216V15.992H9.648V15.2H10.044V13.58H10.44V12.392H10.836V11.204H11.232V9.98H11.628V8.396H12.024V7.208H12.42V5.984H12.816V4.796H13.248V1.988H14.04V2.384H13.644V3.176H14.04V4.004H14.436V5.192H14.832V6.776H15.228V8H15.624V9.188H16.02V10.376H16.416V11.6H16.812V12.788H17.244V13.976H17.64V15.2H18.036V16.388H18.432V17.576H18.828V18.8H19.224V19.196V20.384H19.62V19.988H20.016V19.196H19.62V18.8V18.404H20.016V19.196H20.412V18.404H20.844V17.18H21.24V13.58H21.636V14.804H22.032V14.408H22.428V13.184H22.824V11.996H23.22V10.808H23.616V9.584H24.012V8.396H24.444V7.208H24.84V5.984H25.236V4.796H25.632V3.608H26.028V2.384H26.424V0.799998ZM2.448 1.196H3.636V1.592H2.448V1.196ZM15.228 1.196H16.416V1.592H15.228V1.196ZM27.612 1.196H28.836V1.592H27.612V1.196ZM1.224 1.592H2.448V1.988H1.224V1.592ZM14.04 1.592H15.228V1.988H14.04V1.592ZM28.836 1.592H30.024V1.988H28.836V1.592ZM4.824 1.988H5.22V3.608H4.824V1.988ZM17.64 1.988H18.432V2.384H18.036V3.608H17.64V1.988ZM30.024 1.988H30.816V2.78H30.42V2.384H30.024V1.988ZM30.024 2.78H30.42V4.004H30.024V2.78ZM2.448 3.608H2.844V5.192H2.448V3.608ZM5.22 3.608H5.616V4.796H5.22V3.608ZM18.036 3.608H18.432V4.796H18.036V3.608ZM26.424 4.004H26.028V4.4H26.424V4.004ZM29.628 4.004H30.024V5.192H29.628V4.004ZM5.616 4.796H6.048V5.984H5.616V4.796ZM18.432 4.796H18.828V5.984H18.432V4.796ZM2.844 5.192H3.24V6.776H2.844V5.192ZM29.232 5.192H29.628V6.776H29.232V5.192ZM16.02 5.588H16.416V6.38H16.02V5.588ZM6.048 5.984H6.444V7.208H6.048V5.984ZM18.828 5.984H19.224V7.208H18.828V5.984ZM3.24 6.776H3.636V7.604H3.24V6.776ZM16.416 6.776H16.812V8H16.416V6.776ZM28.836 6.776H29.232V8H28.836V6.776ZM6.444 7.208H6.84V8.396H6.444V7.208ZM19.224 7.208H19.62V8.396H19.224V7.208ZM3.636 8H4.032V8.396H3.636V8ZM16.812 8H17.244V9.188H16.812V8ZM28.44 8H28.836V9.188H28.44V8ZM6.84 8.396H7.236V9.584H6.84V8.396ZM19.62 8.396H20.016V9.584H19.62V8.396ZM17.244 9.188H17.64V9.98H17.244V9.188ZM28.044 9.188H28.44V10.376H28.044V9.188ZM7.236 9.584H7.632V11.204H7.236V9.584ZM20.016 9.584H20.412V11.204H20.016V9.584ZM13.248 9.98H13.644V10.376H13.248V9.98ZM17.64 10.376H18.036V10.808H17.64V10.376ZM27.612 10.376H28.044V11.6H27.612V10.376ZM12.816 10.808H13.248V11.6H12.816V10.808ZM7.632 11.204H8.028V12.392H7.632V11.204ZM20.412 11.204H20.844V12.392H20.412V11.204ZM27.216 11.6H27.612V12.788H27.216V11.6ZM12.42 11.996H12.816V13.184H12.42V11.996ZM6.048 12.392H6.444V12.788H6.048V12.392ZM8.028 12.392H8.424V13.58H8.028V12.392ZM20.844 12.392H21.24V13.58H20.844V12.392ZM26.82 12.788H27.216V14.408H26.82V12.788ZM12.024 13.184H12.42V13.976H12.024V13.184ZM14.436 13.184H14.832V14.408H14.436V13.184ZM24.444 13.184H24.84V13.976H24.444V13.184ZM6.048 13.58H6.444V14.804H6.048V13.58ZM8.424 13.58H8.82V14.804H8.424V13.58ZM18.036 13.58H18.432V14.408H18.036V13.58ZM11.628 14.408H12.024V15.2H11.628V14.408ZM14.04 14.408H14.436V15.596H14.04V14.408ZM24.012 14.408H24.444V15.596H24.012V14.408ZM26.424 14.408H26.82V15.596H26.424V14.408ZM6.444 14.804H6.84V15.992H6.444V14.804ZM8.82 14.804H9.216V15.992H8.82V14.804ZM18.432 14.804H18.828V15.596H18.432V14.804ZM11.232 15.596H11.628V16.388H11.232V15.596ZM13.644 15.596H14.04V16.784H13.644V15.596ZM18.828 15.596H19.224V16.784H18.828V15.596ZM23.616 15.596H24.012V16.784H23.616V15.596ZM26.028 15.596H26.424V16.784H26.028V15.596ZM6.84 15.992H7.236V16.784H6.84V15.992ZM10.836 16.784H11.232V17.18H10.836V16.784ZM13.248 16.784H13.644V18.008H13.248V16.784ZM19.224 16.784H19.62V18.404H19.224V16.784ZM23.22 16.784H23.616V18.008H23.22V16.784ZM25.632 16.784H26.028V18.008H25.632V16.784ZM7.236 17.18H7.632V18.008H7.236V17.18ZM12.816 18.008H13.248V19.196H12.816V18.008ZM25.236 18.008H25.632V19.196H25.236V18.008ZM22.824 18.404H23.22V19.196H22.824V18.404ZM12.42 19.196H12.816V20.384H12.42V19.196ZM24.84 19.196H25.236V20.384H24.84V19.196ZM22.428 19.592H22.824V19.988H22.428V19.592ZM6.84 20.78H7.236V21.176H6.84V20.78ZM12.024 20.384H12.42V22.004H12.024V20.384ZM24.444 20.384H24.84V22.004H24.444V20.384ZM22.032 20.78H22.428V21.176H22.032V20.78ZM9.648 21.176H10.044V21.572H9.648V21.176ZM24.012 22.004H24.444V23.588H24.012V24.38H23.616V23.192H24.012V22.004ZM24.444 23.588H24.84V24.776H24.012V24.38H24.444V23.588ZM23.22 24.38H23.616V24.776H24.012V25.172H23.616V25.604H23.22V24.38ZM8.028 25.604H8.82V26H8.028V25.604ZM14.868 4.796V3.644H15.048V3.248H16.416V4.616H16.02V4.796H14.868ZM15.264 3.428V4.4H16.236V3.428H15.264ZM20.844 23.948V22.796H21.024V22.4H22.392V23.768H21.996V23.948H20.844ZM21.24 22.58V23.552H22.212V22.58H21.24ZM8.496 23.984V22.832H8.676V22.436H10.044V23.804H9.648V23.984H8.496ZM8.892 22.616V23.588H9.864V22.616H8.892ZM46.4808 20.492V20.888H46.0848V20.492H46.4808ZM46.8408 24.848V25.244H45.2928V24.848H46.8408ZM45.6888 19.304V19.7H45.2928V19.304H45.6888ZM45.6888 21.284V21.68H44.8968V21.284H45.6888ZM45.2928 19.7V20.096H44.8968V19.7H45.2928ZM45.2928 25.244V25.604H43.7448V25.244H45.2928ZM44.8968 20.096V20.492H44.5008V20.888H43.7088V21.284H43.3128V21.68H41.2248V21.284H40.4328V20.888H40.0368V20.492H40.8288V20.888H42.0168V21.284H42.5208V20.888H43.3488V20.492H44.1048V20.096H44.8968ZM44.8968 21.68V22.076H43.7088V21.68H44.8968ZM43.7448 25.604V26H42.2688V25.604H43.7448ZM44.4288 23.336V23.732H44.0328V23.336H44.4288ZM43.6368 23.336V23.732H42.3408V23.336H43.6368ZM41.9448 23.336V23.732H41.5488V23.336H41.9448ZM42.2688 25.244V25.604H40.5048V25.244H42.2688ZM40.5048 22.868V23.264H40.1088V22.868H40.5048ZM40.5048 24.848V25.244H38.9208V24.848H40.5048ZM40.0368 20.096V20.492H39.6408V20.096H40.0368ZM39.6408 19.304V20.096H39.2448V19.304H39.6408ZM39.2448 18.152V19.304H38.8488V18.152H39.2448ZM38.9208 24.452V24.848H37.7328V24.452H38.9208ZM37.7328 24.056V24.452H36.9768V24.056H37.7328ZM36.9768 23.66V24.056H36.5808V23.66H36.9768ZM36.5808 23.264V23.66H36.1848V23.264H36.5808ZM36.1848 22.868V23.264H35.7888V22.868H36.1848ZM35.7888 16.964V18.152H35.3928V16.964H35.7888ZM35.7888 18.548V19.304H35.3928V18.548H35.7888ZM35.7888 19.7V20.096H35.3928V19.7H35.7888ZM35.7888 22.472V22.868H35.3928V22.472H35.7888ZM46.8768 17.756H46.4808V18.944H46.0848V19.304H45.6888V18.548H46.0848V16.964H46.4808C46.4808 16.316 46.4808 15.86 46.4808 15.596C46.5048 15.332 46.5408 15.2 46.5888 15.2C46.6128 15.2 46.6368 15.272 46.6608 15.416C46.6848 15.56 46.7088 15.728 46.7328 15.92C46.7808 16.232 46.8168 16.58 46.8408 16.964C46.8648 17.324 46.8768 17.588 46.8768 17.756ZM34.6008 18.62V20.096H34.9968V21.68H35.3928V22.472H34.6728V22.076H34.2768V20.888H33.8808V18.62H34.6008ZM38.8488 18.152H38.4528C38.4528 17.48 38.4648 17.012 38.4888 16.748C38.5128 16.484 38.5488 16.352 38.5968 16.352C38.6208 16.352 38.6448 16.412 38.6688 16.532C38.7168 16.652 38.7528 16.808 38.7768 17C38.8008 17.168 38.8128 17.36 38.8128 17.576C38.8368 17.792 38.8488 17.984 38.8488 18.152ZM38.9928 13.508V13.112H39.3888V13.508H38.9928ZM38.6328 9.152V8.756H40.1808V9.152H38.6328ZM39.7848 14.696V14.3H40.1808V14.696H39.7848ZM39.7848 12.716V12.32H40.5768V12.716H39.7848ZM40.1808 14.3V13.904H40.5768V14.3H40.1808ZM40.1808 8.756V8.396H41.7288V8.756H40.1808ZM40.5768 13.904V13.508H40.9728V13.112H41.7648V12.716H42.1608V12.32H44.2488V12.716H45.0408V13.112H45.4368V13.508H44.6448V13.112H43.4568V12.716H42.9528V13.112H42.1248V13.508H41.3688V13.904H40.5768ZM40.5768 12.32V11.924H41.7648V12.32H40.5768ZM41.7288 8.396V8H43.2048V8.396H41.7288ZM41.0448 10.664V10.268H41.4408V10.664H41.0448ZM41.8368 10.664V10.268H43.1328V10.664H41.8368ZM43.5288 10.664V10.268H43.9248V10.664H43.5288ZM43.2048 8.756V8.396H44.9688V8.756H43.2048ZM44.9688 11.132V10.736H45.3648V11.132H44.9688ZM44.9688 9.152V8.756H46.5528V9.152H44.9688ZM45.4368 13.904V13.508H45.8328V13.904H45.4368ZM45.8328 14.696V13.904H46.2288V14.696H45.8328ZM46.2288 15.848V14.696H46.6248V15.848H46.2288ZM46.5528 9.548V9.152H47.7408V9.548H46.5528ZM47.7408 9.944V9.548H48.4968V9.944H47.7408ZM48.4968 10.34V9.944H48.8928V10.34H48.4968ZM48.8928 10.736V10.34H49.2888V10.736H48.8928ZM49.2888 11.132V10.736H49.6848V11.132H49.2888ZM49.0368 15.272V14.084H49.4328V15.272H49.0368ZM48.6768 13.688V12.932H49.0728V13.688H48.6768ZM48.2808 12.356V11.96H48.6768V12.356H48.2808ZM49.6848 11.528V11.132H50.0808V11.528H49.6848ZM38.4528 18.224V16.244H38.9928V15.056H39.3888V14.696H39.7848V15.452H39.3888V17.036H38.8488L38.4528 18.224ZM50.8728 15.38V13.904H50.4768V12.32H50.0808V11.528H50.4768V11.924H50.8728V13.112H51.2688V15.38H50.8728ZM46.6248 15.848H47.0208C47.0208 16.112 47.0208 16.34 47.0208 16.532C47.0208 16.7 47.0088 16.844 46.9848 16.964C46.9608 17.228 46.9248 17.36 46.8768 17.36C46.8288 17.36 46.7688 17.192 46.6968 16.856C46.6488 16.52 46.6248 16.184 46.6248 15.848ZM34.2768 18.728H33.6648V17.9V18.116V17.432H34.2768V18.116V17.9V18.728ZM37.4088 15.704H37.0128V15.308H37.4088V15.704ZM37.4088 17.792H37.0128V16.496H37.4088V17.792ZM37.4088 16.1H37.0128V15.632H37.4088V16.1ZM34.6368 17.432H34.0248V14.66H34.6368V17.432ZM37.0128 14.66H36.6168V14.264H37.0128V14.66ZM35.0328 14.66H34.3848V13.076H35.0328V14.66ZM37.0128 13.868H36.6168V12.68H37.0128V11.492H38.2008V12.284H37.8048V13.076H37.0128V13.868ZM35.4288 13.076H35.0328V11.888H35.4288V13.076ZM35.8248 11.888H35.4288V11.132H35.8248V11.888ZM36.2208 11.132H35.8248V10.736H36.2208V11.132ZM36.6168 10.736H36.2208V10.34H36.6168V10.736ZM37.0128 10.34H36.6168V9.944H37.0128V10.34ZM41.3328 9.944H40.5768V9.548H41.3328V9.944ZM40.1808 9.944H39.7848V9.548H40.1808V9.944ZM37.4088 9.944H37.0128V9.548H37.4088V9.944ZM39.7848 9.152H38.2008V9.548H37.4088V9.152H37.8048V8.756H38.9928C38.9928 8.684 39.0648 8.648 39.2088 8.648C39.4968 8.648 39.6648 8.672 39.7128 8.72C39.7608 8.768 39.7848 8.912 39.7848 9.152ZM50.9808 15.128H51.5928V15.956V15.74V16.424H50.9808V15.74V15.956V15.128ZM47.8488 15.632H48.2448V16.028H47.8488V15.632ZM47.8488 16.424H48.2448V17.72H47.8488V16.424ZM47.8488 18.116H48.2448V18.584H47.8488V18.116ZM50.6208 16.424H51.2328V19.196H50.6208V16.424ZM48.2448 19.196H48.6408V19.592H48.2448V19.196ZM50.2248 19.196H50.8728V20.78H50.2248V19.196ZM48.2448 19.988H48.6408V21.176H48.2448V22.364H47.0568V21.572H47.4528V20.78H48.2448V19.988ZM49.8288 20.78H50.2248V21.968H49.8288V20.78ZM49.4328 21.968H49.8288V22.724H49.4328V21.968ZM49.0368 22.724H49.4328V23.12H49.0368V22.724ZM48.6408 23.12H49.0368V23.516H48.6408V23.12ZM48.2448 23.516H48.6408V23.912H48.2448V23.516ZM43.9248 23.912H44.6808V24.308H43.9248V23.912ZM45.0768 23.912H45.4728V24.308H45.0768V23.912ZM47.8488 23.912H48.2448V24.308H47.8488V23.912ZM45.4728 24.704H47.0568V24.308H47.8488V24.704H47.4528V25.1H46.2648C46.2648 25.172 46.1928 25.208 46.0488 25.208C45.7608 25.208 45.5928 25.184 45.5448 25.136C45.4968 25.088 45.4728 24.944 45.4728 24.704ZM58.7163 13.436V13.04H59.1123V13.436H58.7163ZM58.3563 9.08V8.684H59.9043V9.08H58.3563ZM59.5083 14.624V14.228H59.9043V14.624H59.5083ZM59.5083 12.644V12.248H60.3003V12.644H59.5083ZM59.9043 14.228V13.832H60.3003V14.228H59.9043ZM59.9043 8.684V8.324H61.4523V8.684H59.9043ZM60.3003 13.832V13.436H60.6963V13.04H61.4883V12.644H61.8843V12.248H63.9723V12.644H64.7643V13.04H65.1603V13.436H64.3683V13.04H63.1803V12.644H62.6763V13.04H61.8483V13.436H61.0923V13.832H60.3003ZM60.3003 12.248V11.852H61.4883V12.248H60.3003ZM61.4523 8.324V7.928H62.9283V8.324H61.4523ZM60.7683 10.592V10.196H61.1643V10.592H60.7683ZM61.5603 10.592V10.196H62.8563V10.592H61.5603ZM63.2523 10.592V10.196H63.6483V10.592H63.2523ZM62.9283 8.684V8.324H64.6923V8.684H62.9283ZM64.6923 11.06V10.664H65.0883V11.06H64.6923ZM64.6923 9.08V8.684H66.2763V9.08H64.6923ZM65.1603 13.832V13.436H65.5563V13.832H65.1603ZM65.4843 11.06V10.664H66.6723V11.06H67.8603V12.248H67.0683V11.852H66.2763V11.06H65.4843ZM65.5563 14.624V13.832H65.9523V14.624H65.5563ZM65.9523 15.776V14.624H66.3483V15.776H65.9523ZM66.2763 9.476V9.08H67.4643V9.476H66.2763ZM67.4643 9.872V9.476H68.2203V9.872H67.4643ZM68.2203 10.268V9.872H68.6163V10.268H68.2203ZM68.6163 10.664V10.268H69.0123V10.664H68.6163ZM69.0123 11.06V10.664H69.4083V11.06H69.0123ZM69.4083 16.964V15.776H69.8043V16.964H69.4083ZM69.4083 15.38V14.624H69.8043V15.38H69.4083ZM69.4083 14.228V13.832H69.8043V14.228H69.4083ZM69.4083 11.456V11.06H69.8043V11.456H69.4083ZM57.9243 18.548V18.152H58.3203V16.172H58.7163V14.984H59.1123V14.624H59.5083V15.38H59.1123V16.964H58.7163V18.548H57.9243ZM70.5963 15.308V13.832H70.2003V12.248H69.8043V11.456H70.2003V11.852H70.5963V13.04H70.9923V15.308H70.5963ZM66.3483 18.08V15.776H66.7443V18.08H66.3483ZM71.3883 25.604V18.692L70.9923 18.404L71.1003 17.972L71.7843 18.296V25.604H71.3883ZM70.5963 18.008V15.992H70.9923V15.2H71.3883V18.8H70.9923V18.008H70.5963ZM69.8043 23.336V22.94H70.2003V22.148H70.5963V22.94H70.2003V23.336H69.8043ZM70.2003 19.124H70.5963V20.348H70.2003V19.124ZM69.8043 21.752V20.96H70.2003V21.752H69.8043ZM69.8043 20.168H70.2003V20.564H69.8043V20.168ZM69.8043 24.128V23.732H70.2003V24.128H69.8043ZM70.2003 14.336H70.5963V14.732H70.2003V14.336ZM69.8043 26H66.3843V16.316L66.7803 16.712V19.952H67.2123V20.348H66.7803V20.744H67.2123V21.536H66.7803V21.932H67.2123V23.552H66.7803V23.948H67.2123V24.344H66.7803V25.604H69.8043V26ZM55.1883 8.324V7.928H58.6083V24.308H58.2123V25.928H57.6003V25.532H57.2043V25.928H54.7923V25.532H54.3963V25.928H53.2083V8.324H53.6043V25.532H54.3963V24.704H54.7923V25.532H55.5843V23.912H55.9803V25.532H56.4123V25.136H56.8083V24.308H57.2043V25.136H57.7803V23.912H58.2123V20.312H57.7803V19.52H58.2123V19.124H57.7803V17.504H58.2123V17.108H57.7803V16.712H58.2123V8.324H55.1883ZM55.1883 19.916H54.7923V19.124H54.3963V22.724H54.7923V21.932H55.1883V19.916ZM55.1883 10.592H54.7923V11.672H54.3963V12.464H54.7923V11.672H55.1883V10.592ZM54.7923 18.728V17.504H54.3963V18.728H54.7923ZM55.1883 15.524H54.7923V16.316H55.1883V15.524ZM55.1883 17.108V16.712H54.7923V17.108H55.1883ZM55.1883 9.8H54.7923V10.196H55.1883V9.8ZM55.0803 14.588V13.436H55.2603V13.04H56.6283V14.408H56.2323V14.588H55.0803ZM55.4763 13.22V14.192H56.4483V13.22H55.4763ZM56.7363 12.644H56.3403V12.248H56.7363V12.644ZM56.7363 11.852H56.3403V10.268H56.7363V11.852ZM56.7363 9.872H56.3403V9.476H56.7363V9.872ZM55.1883 8.684H54.3963V8.324H55.1883V8.684ZM54.3963 8.324H53.6043V7.928H54.3963V8.324ZM68.2563 21.284H68.6523V21.68H68.2563V21.284ZM68.2563 22.076H68.6523V23.66H68.2563V22.076ZM68.2563 24.056H68.6523V24.452H68.2563V24.056ZM69.8043 25.244H70.5963V25.604H69.8043V25.244ZM70.5963 25.604H71.3883V26H70.5963V25.604ZM87.8608 8.864V12.392H88.2568V8.864H87.8608ZM81.1288 8.864V9.26H78.1048V8.864H81.1288ZM78.1048 9.26V9.656H76.9168V9.26H78.1048ZM76.9168 9.656V10.052H76.1248V9.656H76.9168ZM76.1248 10.052V10.448H75.7288V10.052H76.1248ZM75.7288 10.448V10.844H75.3328V10.448H75.7288ZM75.3328 10.844V11.24H74.9368V10.844H75.3328ZM74.9368 11.24V12.32H74.4328V11.24H74.9368ZM81.1288 11.6V11.996H78.8968V11.6H81.1288ZM74.5408 12.32V13.472H74.0008V12.32H74.5408ZM78.8968 11.996V12.392H78.1048V11.996H78.8968ZM78.1048 12.392V12.788H77.7088V12.392H78.1048ZM74.1448 13.472V21.788H73.5328V13.472H74.1448ZM85.0888 13.184V13.58H84.6928V13.184H85.0888ZM78.8968 13.544V14.66H78.5008V13.544H78.8968ZM77.3128 14.264V15.452H76.9168V14.264H77.3128ZM78.5008 14.66V19.16H78.1048V14.66H78.5008ZM85.0888 14.372V14.768H85.4488V15.956H85.0888V16.352H84.6928V14.372H85.0888ZM77.3128 15.848V19.16H76.9168V15.848H77.3128ZM78.8968 19.16V21.356H78.5008V19.16H78.8968ZM80.7328 21.356V21.752H78.8968V21.356H80.7328ZM77.3128 21.356V21.752H76.9168V21.356H77.3128ZM74.5408 21.788V22.94H73.9648V21.788H74.5408ZM74.9368 22.94V24.092H74.3608V22.94H74.9368ZM82.3168 24.092V24.488H81.9208V24.092H82.3168ZM75.3328 24.092V24.488H74.7568V24.092H75.3328ZM75.7288 24.488V24.884H75.3328V24.488H75.7288ZM86.2408 4.004V4.4H85.8448V4.004H86.2408ZM86.2408 4.796V6.38H85.8448V4.796H86.2408ZM86.2408 6.776V7.172H85.8448V6.776H86.2408ZM84.6928 25.316V25.676H83.9008V25.316H84.6928ZM83.9008 25.676V26.072H83.1088V25.676H83.9008ZM86.2408 11.6H85.0888V11.42H84.6928V10.052H86.0608V10.448H86.2408V11.6ZM85.8448 10.232H84.8728V11.24H85.8448V10.232ZM85.8448 24.488H84.6928V24.308H84.2968V22.904H85.6648V23.3H85.8448V24.488ZM85.4488 23.12H84.4768V24.092H85.4488V23.12ZM87.4648 26V21.68H88.6528V26H87.4648ZM87.7528 22.076V25.604H88.2568V22.076H87.7528ZM86.4568 1.268V0.872H87.8248V8.468H88.6528V12.788H87.4648V19.232H87.0688V21.608H87.4648V26.072H84.6928V25.676H86.9968V25.316H86.2408V24.92H86.9968V21.608H86.6008V19.232H86.9968V10.556H87.3928V1.268H86.4568ZM85.0888 1.268V0.872H85.7728V1.268H85.0888ZM83.8648 1.664V1.268H85.0888V1.664H83.8648ZM83.8648 1.268V0.872H82.7128V8.468H81.1288V8.864H82.7128V11.996H82.3168V12.392H79.9768V13.148H78.8968V13.544H80.3728V12.788H82.7128V21.752H80.7328V22.112H82.7128V23.696H82.3168V24.092H82.7128V24.488H82.3168V24.884H82.7128V25.28H82.3168V24.884H81.9208V25.28H81.5248V25.676H81.1288V25.28H80.7328V25.676H79.2568V25.28H76.9168V24.884H75.7288V25.28H76.5208V25.676H78.1048V26.072H82.7128V24.128V26.036C82.8328 26.036 82.9168 26.048 82.9648 26.072C83.0128 26.072 83.0608 26.072 83.1088 26.072V1.268H83.8648ZM86.4568 1.268V1.664H85.7728V1.268H86.4568ZM110.378 16.748V20.168H91.7297V19.772H90.1097V19.16H90.5057V18.764H90.1097V16.352H90.5057V15.956H90.1097V14.768H109.982V15.164H90.5057V15.956H91.3337V16.352H90.5057V17.144H92.1257V17.54H90.5057V17.972H90.9017V18.368H91.7297V18.764H90.9017V19.34H92.1257V19.772H95.7257V19.34H96.5177V19.772H96.9137V19.34H98.5337V19.772H98.9297V19.34H99.3257V19.772H109.982V16.748H110.378ZM98.3897 16.748H96.3737V16.352H95.5817V15.956H99.1817V16.352H98.3897V16.748ZM104.402 16.748H103.538V16.352H102.746V15.956H103.538V16.352H104.402V16.748ZM101.486 16.748H100.694V16.352H101.486V16.748ZM100.73 16.748H100.334V16.352H100.73V16.748ZM93.2417 17.864V16.712H93.4217V16.316H94.7897V17.684H94.3937V17.864H93.2417ZM93.6377 16.496V17.468H94.6097V16.496H93.6377ZM109.586 16.748V15.956H109.946V16.748H109.586ZM109.946 15.956V15.164H110.342V15.956H109.946ZM107.174 21.68H98.9297V21.284H98.1377V20.888H97.7417V20.492H98.5337V20.888H99.7217V21.284H107.174V21.68ZM107.894 25.604V26H99.9737V25.604H107.894ZM101.738 23.336V23.732H100.046V23.336H101.738ZM99.6497 23.336V23.732H99.2537V23.336H99.6497ZM99.9737 25.244V25.604H98.2097V25.244H99.9737ZM98.2097 22.868V23.264H97.8137V22.868H98.2097ZM98.2097 24.848V25.244H96.6257V24.848H98.2097ZM97.7417 20.096V20.492H97.3457V20.096H97.7417ZM97.4177 22.868V23.264H96.2297V22.868H95.0417V21.68H95.8337V22.076H96.6257V22.868H97.4177ZM97.3457 19.304V20.096H96.9497V19.304H97.3457ZM96.6257 24.452V24.848H95.4377V24.452H96.6257ZM95.4377 24.056V24.452H94.6817V24.056H95.4377ZM94.6817 23.66V24.056H94.2857V23.66H94.6817ZM94.2857 23.264V23.66H93.8897V23.264H94.2857ZM93.8897 22.868V23.264H93.4937V22.868H93.8897ZM93.4937 22.472V22.868H93.0977V22.472H93.4937ZM92.3057 19.772V20.096H92.7017V21.68H93.0977V22.472H92.7017V22.076H92.3057V20.888H91.9097V19.772H92.3057ZM107.102 21.68H107.498V24.02H107.102V21.68ZM96.5177 13.508V13.112H96.9137V13.508H96.5177ZM96.1577 9.152V8.756H97.7057V9.152H96.1577ZM97.3097 14.696V14.3H97.7057V14.696H97.3097ZM97.3097 12.716V12.32H98.1017V12.716H97.3097ZM97.7057 14.3V13.904H98.1017V14.3H97.7057ZM97.7057 8.756V8.396H99.2537V8.756H97.7057ZM98.1017 13.904V13.508H98.4977V13.112H99.2897V12.716H99.6857V12.32H102.854V12.716H103.646V13.112H104.042V13.508H103.25V13.112H102.062V12.716H100.478V13.112H99.6497V13.508H98.8937V13.904H98.1017ZM98.1017 12.32V11.924H99.2897V12.32H98.1017ZM99.2537 8.396V8H101.81V8.396H99.2537ZM98.5697 10.664V10.268H98.9657V10.664H98.5697ZM99.3617 10.664V10.268H101.738V10.664H99.3617ZM102.134 10.664V10.268H102.53V10.664H102.134ZM101.81 8.756V8.396H103.574V8.756H101.81ZM106.022 12.104V11.708H106.418V12.104H106.022ZM104.042 13.904V13.508H104.438V13.904H104.042ZM104.438 14.696V13.904H104.834V14.696H104.438ZM104.834 14.696H105.23H104.834ZM94.5377 14.66H94.1417V14.264H94.5377V14.66ZM92.5577 14.66H91.9097V13.076H92.5577V14.66ZM94.5377 13.868H94.1417V12.68H94.5377V11.492H95.7257V12.284H95.3297V13.076H94.5377V13.868ZM92.9537 13.076H92.5577V11.888H92.9537V13.076ZM93.3497 11.888H92.9537V11.132H93.3497V11.888ZM93.7457 11.132H93.3497V10.736H93.7457V11.132ZM94.1417 10.736H93.7457V10.34H94.1417V10.736ZM94.5377 10.34H94.1417V9.944H94.5377V10.34ZM98.8577 9.944H98.1017V9.548H98.8577V9.944ZM97.7057 9.944H97.3097V9.548H97.7057V9.944ZM94.9337 9.944H94.5377V9.548H94.9337V9.944ZM97.3097 9.152H95.7257V9.548H94.9337V9.152H95.3297V8.756H96.5177C96.5177 8.684 96.5897 8.648 96.7337 8.648C97.0217 8.648 97.1897 8.672 97.2377 8.72C97.2857 8.768 97.3097 8.912 97.3097 9.152ZM108.074 11.924V10.808H108.47V11.924H108.074ZM107.678 10.808V10.412H108.074V10.808H107.678ZM107.282 10.412V10.016H107.678V10.412H107.282ZM106.886 10.016V9.62H107.282V10.016H106.886ZM102.566 9.62V9.224H103.322V9.62H102.566ZM105.59 11.672V10.988H105.986V11.672H105.59ZM106.49 9.62V9.224H106.886V9.62H106.49ZM103.466 8.432H104.906H106.094V8.828H106.49V9.224H105.698V8.828H103.466V8.432ZM108.866 15.02V12.896H109.262V15.02H108.866ZM108.47 12.896V11.924H108.866V12.896H108.47ZM108.254 25.604V24.812H107.894V25.604H108.254ZM107.894 24.812V24.02H107.498V24.812H107.894ZM106.13 17.864V16.712H106.31V16.316H107.678V17.684H107.282V17.864H106.13ZM106.526 16.496V17.468H107.498V16.496H106.526ZM117.005 13.436V13.04H117.401V13.436H117.005ZM116.645 9.08V8.684H118.193V9.08H116.645ZM117.797 14.624V14.228H118.193V14.624H117.797ZM117.797 12.644V12.248H118.589V12.644H117.797ZM118.193 14.228V13.832H118.589V14.228H118.193ZM118.193 8.684V8.324H119.741V8.684H118.193ZM118.589 13.832V13.436H118.985V13.04H119.777V12.644H120.173V12.248H123.341V12.644H124.133V13.04H124.529V13.436H123.737V13.04H122.549V12.644H120.965V13.04H120.137V13.436H119.381V13.832H118.589ZM118.589 12.248V11.852H119.777V12.248H118.589ZM119.741 8.324V7.928H122.297V8.324H119.741ZM119.057 10.592V10.196H119.453V10.592H119.057ZM119.849 10.592V10.196H122.225V10.592H119.849ZM122.621 10.592V10.196H123.017V10.592H122.621ZM122.297 8.684V8.324H124.061V8.684H122.297ZM124.061 11.06V10.664H124.457V11.06H124.061ZM124.061 9.08V8.684H125.645V9.08H124.061ZM124.529 13.832V13.436H124.853V13.832H124.529ZM116.213 18.548V18.152H116.609V16.172H117.005V14.984H117.401V14.624H117.797V15.38H117.401V16.964H117.005V18.548H116.213ZM113.477 8.324V7.928H116.897V24.308H116.501V25.928H115.889V25.532H115.493V25.928H113.081V25.532H112.685V25.928H111.497V8.324H111.893V25.532H112.685V24.704H113.081V25.532H113.873V23.912H114.269V25.532H114.701V25.136H115.097V24.308H115.493V25.136H116.069V23.912H116.501V20.312H116.069V19.52H116.501V19.124H116.069V17.504H116.501V17.108H116.069V16.712H116.501V8.324H113.477ZM113.477 19.916H113.081V19.124H112.685V22.724H113.081V21.932H113.477V19.916ZM113.477 10.592H113.081V11.672H112.685V12.464H113.081V11.672H113.477V10.592ZM113.081 18.728V17.504H112.685V18.728H113.081ZM113.477 15.524H113.081V16.316H113.477V15.524ZM113.477 17.108V16.712H113.081V17.108H113.477ZM113.477 9.8H113.081V10.196H113.477V9.8ZM113.369 14.588V13.436H113.549V13.04H114.917V14.408H114.521V14.588H113.369ZM113.765 13.22V14.192H114.737V13.22H113.765ZM115.025 12.644H114.629V12.248H115.025V12.644ZM115.025 11.852H114.629V10.268H115.025V11.852ZM115.025 9.872H114.629V9.476H115.025V9.872ZM113.477 8.684H112.685V8.324H113.477V8.684ZM112.685 8.324H111.893V7.928H112.685V8.324ZM124.853 13.436V10.664H125.249V13.436H124.853ZM126.005 9.08H125.645V9.872H126.005V9.08ZM125.645 9.872H125.249V10.664H125.645V9.872ZM142.767 5.516H140.319V5.912H139.131V6.308H138.339V5.912H138.735V5.516H139.527V5.12H142.731L142.767 5.516ZM140.571 1.196V0.799998H142.371V1.196H140.571ZM140.643 3.464V3.068H141.975V3.464H140.643ZM140.247 3.464H139.851V3.068H140.247V3.464ZM138.807 1.556V1.196H140.571V1.556H138.807ZM138.807 3.932H138.411V3.536H138.807V3.932ZM138.807 1.952H137.223V1.556H138.807V1.952ZM138.339 6.704H137.943V6.308H138.339V6.704ZM138.015 3.932H137.223V4.724H136.431V5.12H135.639V3.932H136.827V3.536H138.015V3.932ZM137.943 7.496H137.547V6.704H137.943V7.496ZM137.547 8.288H137.151V7.496H137.547V8.288ZM137.223 2.348H136.035V1.952H137.223V2.348ZM136.035 2.744H135.279V2.348H136.035V2.744ZM135.279 3.14H134.883V2.744H135.279V3.14ZM134.883 3.536H134.487V3.14H134.883V3.536ZM134.487 3.932H134.091V3.536H134.487V3.932ZM134.091 8.252H133.695V7.496H134.091V8.252ZM134.091 7.1H133.695V6.704H134.091V7.1ZM134.091 4.328H133.695V3.932H134.091V4.328ZM132.507 8.18V5.912H132.903V4.724H133.299V4.328H133.695V5.12H133.299V6.704H132.903V8.18H132.507ZM142.371 2.78H142.767V5.48H142.371V2.78ZM142.767 10.088V13.508H128.547V13.112H126.927V12.5H127.323V12.104H126.927V9.692H127.323V9.296H126.927V8.108H142.371V8.504H127.323V9.296H128.151V9.692H127.323V10.484H128.943V10.88H127.323V11.312H127.719V11.708H128.547V12.104H127.719V12.68H128.943V13.112H132.543V12.68H133.335V13.112H133.731V12.68H135.351V13.112H135.747V12.68H136.143V13.112H142.371V10.088H142.767ZM132.219 10.088H130.203V9.692H129.411V9.296H133.011V9.692H132.219V10.088ZM140.463 10.088H139.383V9.692H138.591V9.296H139.383V9.692H140.463V10.088ZM137.331 10.088H136.539V9.692H137.331V10.088ZM141.255 10.088H140.859V9.692H141.255V10.088ZM131.895 25.604V13.22H132.579L132.291 13.436V25.604H131.895ZM133.479 23.336V22.94H133.083V22.148H133.479V22.94H133.875V23.336H133.479ZM133.479 17.468H133.083V16.244H133.479V17.468ZM133.479 21.752V20.96H133.875V21.752H133.479ZM133.875 17.684H133.479V17.288H133.875V17.684ZM133.479 24.128V23.732H133.875V24.128H133.479ZM133.299 7.604H132.903V7.208H133.299V7.604ZM133.875 25.604H136.899V24.344H136.467V23.948H136.899V23.552H136.467V21.932H136.899V21.536H136.467V20.744H136.899V20.348H136.467V19.952H136.899V13.58L137.295 13.184V26H133.875V25.604ZM133.767 11.384V10.232H133.947V9.836H135.315V11.204H134.919V11.384H133.767ZM134.163 10.016V10.988H135.135V10.016H134.163ZM133.875 25.244V25.604H133.083V25.244H133.875ZM133.083 25.604V26H132.291V25.604H133.083ZM142.731 1.196V1.988H142.371V1.196H142.731ZM142.371 1.988V2.78H141.975V1.988H142.371ZM141.975 10.088V9.296H142.335V10.088H141.975ZM142.335 9.296V8.504H142.731V9.296H142.335ZM157.974 20.492V20.888H157.578V20.492H157.974ZM158.334 24.848V25.244H156.786V24.848H158.334ZM157.182 19.304V19.7H156.786V19.304H157.182ZM157.182 21.284V21.68H156.39V21.284H157.182ZM156.786 19.7V20.096H156.39V19.7H156.786ZM156.786 25.244V25.604H155.238V25.244H156.786ZM156.39 20.096V20.492H155.994V20.888H155.202V21.284H154.806V21.68H152.358V21.284H151.566V20.888H151.17V20.492H151.962V20.888H153.15V21.284H154.014V20.888H154.842V20.492H155.598V20.096H156.39ZM156.39 21.68V22.076H155.202V21.68H156.39ZM155.238 25.604V26H153.402V25.604H155.238ZM155.922 23.336V23.732H155.526V23.336H155.922ZM155.13 23.336V23.732H153.474V23.336H155.13ZM153.078 23.336V23.732H152.682V23.336H153.078ZM153.402 25.244V25.604H151.638V25.244H153.402ZM151.638 22.868V23.264H151.242V22.868H151.638ZM151.638 24.848V25.244H150.054V24.848H151.638ZM151.17 20.096V20.492H150.774V20.096H151.17ZM150.846 22.868V23.264H149.658V22.868H148.47V21.68H149.262V22.076H150.054V22.868H150.846ZM150.774 19.304V20.096H150.378V19.304H150.774ZM150.378 18.152V19.304H149.982V18.152H150.378ZM150.054 24.452V24.848H148.866V24.452H150.054ZM148.866 24.056V24.452H148.11V24.056H148.866ZM148.11 23.66V24.056H147.714V23.66H148.11ZM147.714 23.264V23.66H147.318V23.264H147.714ZM147.318 22.868V23.264H146.922V22.868H147.318ZM146.922 16.964V18.152H146.526V16.964H146.922ZM146.922 18.548V19.304H146.526V18.548H146.922ZM146.922 19.7V20.096H146.526V19.7H146.922ZM146.922 22.472V22.868H146.526V22.472H146.922ZM158.766 15.38V15.776H158.37V17.756H157.974V18.944H157.578V19.304H157.182V18.548H157.578V16.964H157.974V15.38H158.766ZM145.734 18.62V20.096H146.13V21.68H146.526V22.472H146.13V22.076H145.734V20.888H145.338V18.62H145.734ZM149.982 15.848V18.152H149.586V15.848H149.982ZM144.942 8.324V15.236L145.338 15.524L145.23 15.632H144.546V8.324H144.942ZM145.734 15.92V17.936H145.338V18.728H144.942V15.128H145.338V15.92H145.734ZM146.526 10.592V10.988H146.13V11.78H145.734V10.988H146.13V10.592H146.526ZM146.13 14.804H145.734V13.58H146.13V14.804ZM146.526 12.176V12.968H146.13V12.176H146.526ZM146.526 13.76H146.13V13.364H146.526V13.76ZM146.526 9.8V10.196H146.13V9.8H146.526ZM146.13 19.592H145.734V19.196H146.13V19.592ZM146.526 7.928H149.946V17.612L149.55 17.216V13.976H149.118V13.58H149.55C149.55 13.508 149.562 13.436 149.586 13.364C149.61 13.292 149.598 13.232 149.55 13.184C149.526 13.16 149.478 13.148 149.406 13.148C149.358 13.148 149.31 13.16 149.262 13.184C149.214 13.184 149.166 13.184 149.118 13.184V12.392H149.55V11.996H149.118V10.376H149.55V9.98H149.118V9.584H149.55V8.324H146.526V7.928ZM161.502 14.012H161.898V14.804H162.294V11.204H161.898V11.996H161.502V14.012ZM161.502 23.336H161.898V22.256H162.294V21.464H161.898V22.256H161.502V23.336ZM161.898 15.2V16.424H162.294V15.2H161.898ZM161.502 18.404H161.898V17.612H161.502V18.404ZM161.502 16.82V17.216H161.898V16.82H161.502ZM161.502 24.128H161.898V23.732H161.502V24.128ZM161.502 25.604V26H158.082V9.62H158.478V8H159.09V8.396H159.486V8H161.898V8.396H162.294V8H163.482V25.604H163.086V8.396H162.294V9.224H161.898V8.396H161.106V10.016H160.71V8.396H160.278V8.792H159.882V9.62H159.486V8.792H158.91V10.016H158.478V13.616H158.91V14.408H158.478V14.804H158.91V16.424H158.478V16.82H158.91V17.216H158.478V25.604H161.502ZM160.134 20.888V19.736H160.314V19.34H161.682V20.708H161.286V20.888H160.134ZM160.53 19.52V20.492H161.502V19.52H160.53ZM159.954 21.284H160.35V21.68H159.954V21.284ZM159.954 22.076H160.35V23.66H159.954V22.076ZM159.954 24.056H160.35V24.452H159.954V24.056ZM161.502 25.244H162.294V25.604H161.502V25.244ZM162.294 25.604H163.086V26H162.294V25.604ZM148.074 12.644H147.678V12.248H148.074V12.644ZM148.074 11.852H147.678V10.268H148.074V11.852ZM148.074 9.872H147.678V9.476H148.074V9.872ZM146.526 8.684H145.734V8.324H146.526V8.684ZM145.734 8.324H144.942V7.928H145.734V8.324ZM165.685 0.799998H171.085V20.384H173.749V21.968H173.353V22.364H173.749V25.568H171.085V26H169.897V25.604H169.501V26H167.089V25.604H166.693V26H166.081V24.38H165.685V0.799998ZM166.513 23.984V25.208H167.089V24.38H167.485V25.208H167.881V25.604H168.313V23.984H168.709V25.604H169.501V24.776H169.897V25.604H170.689V25.568H170.653L170.617 25.172H170.689V1.196H166.081V9.584H166.513V9.98H166.081V10.376H166.513V11.996H166.081V12.392H166.513V13.184H166.081V13.58H166.513V13.976H166.081V20.384H166.513V20.78H166.081V21.176H166.513V22.4H166.081V23.984H166.513ZM173.353 25.172V24.38H172.957V22.364H172.057V21.968H172.561V21.572H172.957V20.78H171.121V23.588H171.085V25.172H173.353ZM167.737 23.336V22.148H167.917V21.752H169.285V23.156H168.889V23.336H167.737ZM169.105 15.992H169.501V15.2H169.897V18.8H169.501V18.008H169.105V15.992ZM169.105 7.208V3.464H169.501V7.208H169.897V8H169.501V7.208H169.105ZM169.105 22.94V21.968H168.133V22.94H169.105ZM169.501 14.804V13.58H169.897V14.804H169.501ZM169.105 8.396H169.501V9.188H169.105V8.396ZM169.897 19.988V20.78H169.501V19.988H169.897ZM169.501 2.672V3.068H169.105V2.672H169.501ZM169.501 19.592V19.196H169.897V19.592H169.501ZM169.105 9.584H169.501V9.98H169.105V9.584ZM200.438 9.836C200.438 9.5 200.474 9.332 200.546 9.332C200.618 9.332 200.678 9.416 200.726 9.584C200.774 9.656 200.81 9.74 200.834 9.836H200.438ZM197.378 10.952C197.378 10.664 197.378 10.376 197.378 10.088C197.402 9.8 197.426 9.548 197.45 9.332C197.474 9.092 197.498 8.9 197.522 8.756C197.57 8.588 197.606 8.504 197.63 8.504C197.678 8.504 197.714 8.696 197.738 9.08C197.762 9.464 197.774 10.124 197.774 11.06L197.378 10.952ZM197.234 20.492V20.888H196.838V20.492H197.234ZM197.594 24.848V25.244H196.046V24.848H197.594ZM196.442 19.304V19.7H196.046V19.304H196.442ZM196.442 21.284V21.68H195.65V21.284H196.442ZM196.046 19.7V20.096H195.65V19.7H196.046ZM196.046 25.244V25.604H194.498V25.244H196.046ZM195.65 20.096V20.492H195.254V20.888H194.462V21.284H194.066V21.68H190.898V21.284H190.106V20.888H189.71V20.492H190.502V20.888H191.69V21.284H193.274V20.888H194.102V20.492H194.858V20.096H195.65ZM195.65 21.68V22.076H194.462V21.68H195.65ZM194.498 25.604V26H190.142V25.604H194.498ZM195.182 23.336V23.732H194.786V23.336H195.182ZM194.39 23.336V23.732H192.014V23.336H194.39ZM191.618 23.336V23.732H191.222V23.336H191.618ZM190.142 25.244V25.604H188.378V25.244H190.142ZM190.178 22.868V23.264H189.782V22.868H190.178ZM189.71 20.096V20.492H189.314V20.096H189.71ZM189.314 19.304V20.096H188.918V19.304H189.314ZM188.918 19.304H188.522H188.918ZM197.774 10.412V12.176V15.776V17.756H197.234V18.944H196.838V19.304H196.442V18.548H196.838V16.964H197.378V10.952L197.774 10.412ZM201.95 5.912H202.562V16.568H201.95V5.912ZM198.818 10.016H199.214V10.412H198.818V10.016ZM198.818 10.808H199.214V13.184H198.818V10.808ZM198.818 13.58H199.214V15.128H198.818V13.58ZM201.59 16.568H202.202V19.34H201.59V16.568ZM199.214 19.34H199.61V19.736H199.214V19.34ZM201.194 19.34H201.842V20.924H201.194V19.34ZM199.214 20.132H199.61V21.32H199.214V22.508H198.026V21.716H198.422V20.924H199.214V20.132ZM200.798 20.924H201.194V22.112H200.798V20.924ZM200.402 22.112H200.798V22.868H200.402V22.112ZM200.006 22.868H200.402V23.264H200.006V22.868ZM199.61 23.264H200.006V23.66H199.61V23.264ZM199.214 23.66H199.61V24.056H199.214V23.66ZM194.894 24.056H195.65V24.452H194.894V24.056ZM196.046 24.056H196.442V24.452H196.046V24.056ZM198.818 24.056H199.214V24.452H198.818V24.056ZM196.442 24.848H198.026V24.452H198.818V24.848H198.422V25.244H197.234C197.234 25.316 197.162 25.352 197.018 25.352C196.73 25.352 196.562 25.328 196.514 25.28C196.466 25.232 196.442 25.088 196.442 24.848ZM186.362 21.248H187.55V22.04H187.946V22.832H186.758V21.644H186.362V21.248ZM185.57 22.076V23.192H185.174V22.076H185.57ZM185.966 23.192V23.588H185.57V23.192H185.966ZM186.362 23.588V23.984H185.966V23.588H186.362ZM186.758 23.984V24.38H186.362V23.984H186.758ZM191.078 24.38V24.776H190.322V24.38H191.078ZM189.926 24.38V24.776H189.53V24.38H189.926ZM187.154 24.38V24.776H186.758V24.38H187.154ZM190.178 25.568H188.738H187.55V25.172H187.154V24.776H187.946V25.172H190.178V25.568ZM187.19 18.188V18.584H186.002V18.188H187.19ZM186.002 18.584V18.98H184.778V18.584H186.002ZM184.778 18.98V21.104H184.382V18.98H184.778ZM188.918 19.376V19.016C188.918 19.016 188.906 19.004 188.882 18.98H188.666V17.792H187.19V18.188H188.27V19.376H188.918ZM185.174 22.076H184.778V21.104H185.174V22.076ZM197.342 5.984H191.798V4.4H192.194V4.004H191.798V0.799998H199.61V1.196H205.298V6.38H201.986V2.384H197.738L197.81 11.996H197.378V12.392H197.81V13.184H197.378V13.58H197.81V13.976H197.378L197.342 5.984ZM192.194 1.196V1.988H192.59V4.004H194.21V4.4H192.986V4.796H192.59V5.588H196.946V2.78H197.342V1.988H202.382V4.796H203.606V5.192H202.778V5.984H204.902V1.592H199.61V1.196H192.194ZM200.402 5.984H200.798V7.208H201.194V8H200.798V7.208H200.402V5.984ZM200.798 13.58H201.194H200.798ZM195.002 2.78H193.778V2.384H195.002V2.78ZM202.778 4.4V4.004H203.606V4.4H202.778ZM200.402 8.396H200.798V9.188H200.402V8.396ZM193.382 2.78H192.986V2.384H193.382V2.78ZM200.402 9.98V9.584H200.798V9.98H200.402ZM195.398 2.384H195.794V2.78H195.398V2.384ZM200.402 5.192H200.798V5.588H200.402V5.192ZM204.002 4.796H204.398V5.192H204.002V4.796ZM198.818 4.724V3.572H198.998V3.176H200.366V4.544H199.97V4.724H198.818ZM199.214 3.356V4.328H200.186V3.356H199.214ZM219.66 20.492V20.888H219.264V20.492H219.66ZM220.02 24.848V25.244H218.472V24.848H220.02ZM218.868 19.304V19.7H218.472V19.304H218.868ZM218.868 21.284V21.68H218.076V21.284H218.868ZM218.472 19.7V20.096H218.076V19.7H218.472ZM218.472 25.244V25.604H216.924V25.244H218.472ZM218.076 20.096V20.492H217.68V20.888H216.888V21.284H216.492V21.68H214.404V21.284H213.612V20.888H213.216V20.492H214.008V20.888H215.196V21.284H215.7V20.888H216.528V20.492H217.284V20.096H218.076ZM218.076 21.68V22.076H216.888V21.68H218.076ZM216.924 25.604V26H215.448V25.604H216.924ZM217.608 23.336V23.732H217.212V23.336H217.608ZM216.816 23.336V23.732H215.52V23.336H216.816ZM215.124 23.336V23.732H214.728V23.336H215.124ZM215.448 25.244V25.604H213.684V25.244H215.448ZM213.684 22.868V23.264H213.288V22.868H213.684ZM213.684 24.848V25.244H212.1V24.848H213.684ZM213.216 20.096V20.492H212.82V20.096H213.216ZM212.82 19.304V20.096H212.424V19.304H212.82ZM212.424 18.152V19.304H212.028V18.152H212.424ZM212.1 24.452V24.848H210.912V24.452H212.1ZM210.912 24.056V24.452H210.156V24.056H210.912ZM210.156 23.66V24.056H209.76V23.66H210.156ZM209.76 23.264V23.66H209.364V23.264H209.76ZM209.364 22.868V23.264H208.968V22.868H209.364ZM208.968 16.964V18.152H208.572V16.964H208.968ZM208.968 18.548V19.304H208.572V18.548H208.968ZM208.968 19.7V20.096H208.572V19.7H208.968ZM208.968 22.472V22.868H208.572V22.472H208.968ZM220.056 17.756H219.66V18.944H219.264V19.304H218.868V18.548H219.264V16.964H219.66C219.66 16.316 219.66 15.86 219.66 15.596C219.684 15.332 219.72 15.2 219.768 15.2C219.792 15.2 219.816 15.272 219.84 15.416C219.864 15.56 219.888 15.728 219.912 15.92C219.96 16.232 219.996 16.58 220.02 16.964C220.044 17.324 220.056 17.588 220.056 17.756ZM207.78 18.62V20.096H208.176V21.68H208.572V22.472H207.852V22.076H207.456V20.888H207.06V18.62H207.78ZM212.028 18.152H211.632C211.632 17.48 211.644 17.012 211.668 16.748C211.692 16.484 211.728 16.352 211.776 16.352C211.8 16.352 211.824 16.412 211.848 16.532C211.896 16.652 211.932 16.808 211.956 17C211.98 17.168 211.992 17.36 211.992 17.576C212.016 17.792 212.028 17.984 212.028 18.152ZM212.172 13.508V13.112H212.568V13.508H212.172ZM211.812 9.152V8.756H213.36V9.152H211.812ZM212.964 14.696V14.3H213.36V14.696H212.964ZM212.964 12.716V12.32H213.756V12.716H212.964ZM213.36 14.3V13.904H213.756V14.3H213.36ZM213.36 8.756V8.396H214.908V8.756H213.36ZM213.756 13.904V13.508H214.152V13.112H214.944V12.716H215.34V12.32H217.428V12.716H218.22V13.112H218.616V13.508H217.824V13.112H216.636V12.716H216.132V13.112H215.304V13.508H214.548V13.904H213.756ZM213.756 12.32V11.924H214.944V12.32H213.756ZM214.908 8.396V8H216.384V8.396H214.908ZM214.224 10.664V10.268H214.62V10.664H214.224ZM215.016 10.664V10.268H216.312V10.664H215.016ZM216.708 10.664V10.268H217.104V10.664H216.708ZM216.384 8.756V8.396H218.148V8.756H216.384ZM218.148 11.132V10.736H218.544V11.132H218.148ZM218.148 9.152V8.756H219.732V9.152H218.148ZM218.616 13.904V13.508H219.012V13.904H218.616ZM219.012 14.696V13.904H219.408V14.696H219.012ZM219.408 15.848V14.696H219.804V15.848H219.408ZM219.732 9.548V9.152H220.92V9.548H219.732ZM220.92 9.944V9.548H221.676V9.944H220.92ZM221.676 10.34V9.944H222.072V10.34H221.676ZM222.072 10.736V10.34H222.468V10.736H222.072ZM222.468 11.132V10.736H222.864V11.132H222.468ZM222.216 15.272V14.084H222.612V15.272H222.216ZM221.856 13.688V12.932H222.252V13.688H221.856ZM221.46 12.356V11.96H221.856V12.356H221.46ZM222.864 11.528V11.132H223.26V11.528H222.864ZM211.632 18.224V16.244H212.172V15.056H212.568V14.696H212.964V15.452H212.568V17.036H212.028L211.632 18.224ZM224.052 15.38V13.904H223.656V12.32H223.26V11.528H223.656V11.924H224.052V13.112H224.448V15.38H224.052ZM219.804 15.848H220.2C220.2 16.112 220.2 16.34 220.2 16.532C220.2 16.7 220.188 16.844 220.164 16.964C220.14 17.228 220.104 17.36 220.056 17.36C220.008 17.36 219.948 17.192 219.876 16.856C219.828 16.52 219.804 16.184 219.804 15.848ZM207.456 18.728H206.844V17.9V18.116V17.432H207.456V18.116V17.9V18.728ZM210.588 15.704H210.192V15.308H210.588V15.704ZM210.588 17.792H210.192V16.496H210.588V17.792ZM210.588 16.1H210.192V15.632H210.588V16.1ZM207.816 17.432H207.204V14.66H207.816V17.432ZM210.192 14.66H209.796V14.264H210.192V14.66ZM208.212 14.66H207.564V13.076H208.212V14.66ZM210.192 13.868H209.796V12.68H210.192V11.492H211.38V12.284H210.984V13.076H210.192V13.868ZM208.608 13.076H208.212V11.888H208.608V13.076ZM209.004 11.888H208.608V11.132H209.004V11.888ZM209.4 11.132H209.004V10.736H209.4V11.132ZM209.796 10.736H209.4V10.34H209.796V10.736ZM210.192 10.34H209.796V9.944H210.192V10.34ZM214.512 9.944H213.756V9.548H214.512V9.944ZM213.36 9.944H212.964V9.548H213.36V9.944ZM210.588 9.944H210.192V9.548H210.588V9.944ZM212.964 9.152H211.38V9.548H210.588V9.152H210.984V8.756H212.172C212.172 8.684 212.244 8.648 212.388 8.648C212.676 8.648 212.844 8.672 212.892 8.72C212.94 8.768 212.964 8.912 212.964 9.152ZM224.16 15.128H224.772V15.956V15.74V16.424H224.16V15.74V15.956V15.128ZM221.028 15.632H221.424V16.028H221.028V15.632ZM221.028 16.424H221.424V17.72H221.028V16.424ZM221.028 18.116H221.424V18.584H221.028V18.116ZM223.8 16.424H224.412V19.196H223.8V16.424ZM221.424 19.196H221.82V19.592H221.424V19.196ZM223.404 19.196H224.052V20.78H223.404V19.196ZM221.424 19.988H221.82V21.176H221.424V22.364H220.236V21.572H220.632V20.78H221.424V19.988ZM223.008 20.78H223.404V21.968H223.008V20.78ZM222.612 21.968H223.008V22.724H222.612V21.968ZM222.216 22.724H222.612V23.12H222.216V22.724ZM221.82 23.12H222.216V23.516H221.82V23.12ZM221.424 23.516H221.82V23.912H221.424V23.516ZM217.104 23.912H217.86V24.308H217.104V23.912ZM218.256 23.912H218.652V24.308H218.256V23.912ZM221.028 23.912H221.424V24.308H221.028V23.912ZM218.652 24.704H220.236V24.308H221.028V24.704H220.632V25.1H219.444C219.444 25.172 219.372 25.208 219.228 25.208C218.94 25.208 218.772 25.184 218.724 25.136C218.676 25.088 218.652 24.944 218.652 24.704ZM239.888 20.492V20.888H239.492V20.492H239.888ZM240.248 24.848V25.244H238.7V24.848H240.248ZM239.096 19.304V19.7H238.7V19.304H239.096ZM239.096 21.284V21.68H238.304V21.284H239.096ZM238.7 19.7V20.096H238.304V19.7H238.7ZM238.7 25.244V25.604H237.152V25.244H238.7ZM238.304 20.096V20.492H237.908V20.888H237.116V21.284H236.72V21.68H234.272V21.284H233.48V20.888H233.084V20.492H233.876V20.888H235.064V21.284H235.928V20.888H236.756V20.492H237.512V20.096H238.304ZM238.304 21.68V22.076H237.116V21.68H238.304ZM237.152 25.604V26H235.316V25.604H237.152ZM237.836 23.336V23.732H237.44V23.336H237.836ZM237.044 23.336V23.732H235.388V23.336H237.044ZM234.992 23.336V23.732H234.596V23.336H234.992ZM235.316 25.244V25.604H233.552V25.244H235.316ZM233.552 22.868V23.264H233.156V22.868H233.552ZM233.552 24.848V25.244H231.968V24.848H233.552ZM233.084 20.096V20.492H232.688V20.096H233.084ZM232.76 22.868V23.264H231.572V22.868H230.384V21.68H231.176V22.076H231.968V22.868H232.76ZM232.688 19.304V20.096H232.292V19.304H232.688ZM232.292 18.152V19.304H231.896V18.152H232.292ZM231.968 24.452V24.848H230.78V24.452H231.968ZM230.78 24.056V24.452H230.024V24.056H230.78ZM230.024 23.66V24.056H229.628V23.66H230.024ZM229.628 23.264V23.66H229.232V23.264H229.628ZM229.232 22.868V23.264H228.836V22.868H229.232ZM228.836 16.964V18.152H228.44V16.964H228.836ZM228.836 18.548V19.304H228.44V18.548H228.836ZM228.836 19.7V20.096H228.44V19.7H228.836ZM228.836 22.472V22.868H228.44V22.472H228.836ZM240.68 15.38V15.776H240.284V17.756H239.888V18.944H239.492V19.304H239.096V18.548H239.492V16.964H239.888V15.38H240.68ZM227.648 18.62V20.096H228.044V21.68H228.44V22.472H228.044V22.076H227.648V20.888H227.252V18.62H227.648ZM231.896 15.848V18.152H231.5V15.848H231.896ZM226.856 8.324V15.236L227.252 15.524L227.144 15.632H226.46V8.324H226.856ZM227.648 15.92V17.936H227.252V18.728H226.856V15.128H227.252V15.92H227.648ZM228.44 10.592V10.988H228.044V11.78H227.648V10.988H228.044V10.592H228.44ZM228.044 14.804H227.648V13.58H228.044V14.804ZM228.44 12.176V12.968H228.044V12.176H228.44ZM228.44 13.76H228.044V13.364H228.44V13.76ZM228.44 9.8V10.196H228.044V9.8H228.44ZM228.044 19.592H227.648V19.196H228.044V19.592ZM228.44 7.928H231.86V17.612L231.464 17.216V13.976H231.032V13.58H231.464C231.464 13.508 231.476 13.436 231.5 13.364C231.524 13.292 231.512 13.232 231.464 13.184C231.44 13.16 231.392 13.148 231.32 13.148C231.272 13.148 231.224 13.16 231.176 13.184C231.128 13.184 231.08 13.184 231.032 13.184V12.392H231.464V11.996H231.032V10.376H231.464V9.98H231.032V9.584H231.464V8.324H228.44V7.928ZM243.416 14.012H243.812V14.804H244.208V11.204H243.812V11.996H243.416V14.012ZM243.416 23.336H243.812V22.256H244.208V21.464H243.812V22.256H243.416V23.336ZM243.812 15.2V16.424H244.208V15.2H243.812ZM243.416 18.404H243.812V17.612H243.416V18.404ZM243.416 16.82V17.216H243.812V16.82H243.416ZM243.416 24.128H243.812V23.732H243.416V24.128ZM243.416 25.604V26H239.996V9.62H240.392V8H241.004V8.396H241.4V8H243.812V8.396H244.208V8H245.396V25.604H245V8.396H244.208V9.224H243.812V8.396H243.02V10.016H242.624V8.396H242.192V8.792H241.796V9.62H241.4V8.792H240.824V10.016H240.392V13.616H240.824V14.408H240.392V14.804H240.824V16.424H240.392V16.82H240.824V17.216H240.392V25.604H243.416ZM242.048 20.888V19.736H242.228V19.34H243.596V20.708H243.2V20.888H242.048ZM242.444 19.52V20.492H243.416V19.52H242.444ZM241.868 21.284H242.264V21.68H241.868V21.284ZM241.868 22.076H242.264V23.66H241.868V22.076ZM241.868 24.056H242.264V24.452H241.868V24.056ZM243.416 25.244H244.208V25.604H243.416V25.244ZM244.208 25.604H245V26H244.208V25.604ZM229.988 12.644H229.592V12.248H229.988V12.644ZM229.988 11.852H229.592V10.268H229.988V11.852ZM229.988 9.872H229.592V9.476H229.988V9.872ZM228.44 8.684H227.648V8.324H228.44V8.684ZM227.648 8.324H226.856V7.928H227.648V8.324ZM252.603 13.436V13.04H252.999V13.436H252.603ZM252.243 9.08V8.684H253.791V9.08H252.243ZM253.395 14.624V14.228H253.791V14.624H253.395ZM253.395 12.644V12.248H254.187V12.644H253.395ZM253.791 14.228V13.832H254.187V14.228H253.791ZM253.791 8.684V8.324H255.339V8.684H253.791ZM254.187 13.832V13.436H254.583V13.04H255.375V12.644H255.771V12.248H258.939V12.644H259.731V13.04H260.127V13.436H259.335V13.04H258.147V12.644H256.563V13.04H255.735V13.436H254.979V13.832H254.187ZM254.187 12.248V11.852H255.375V12.248H254.187ZM255.339 8.324V7.928H257.895V8.324H255.339ZM254.655 10.592V10.196H255.051V10.592H254.655ZM255.447 10.592V10.196H257.823V10.592H255.447ZM258.219 10.592V10.196H258.615V10.592H258.219ZM257.895 8.684V8.324H259.659V8.684H257.895ZM259.659 11.06V10.664H260.055V11.06H259.659ZM259.659 9.08V8.684H261.243V9.08H259.659ZM260.127 13.832V13.436H260.451V13.832H260.127ZM251.811 18.548V18.152H252.207V16.172H252.603V14.984H252.999V14.624H253.395V15.38H252.999V16.964H252.603V18.548H251.811ZM249.075 8.324V7.928H252.495V24.308H252.099V25.928H251.487V25.532H251.091V25.928H248.679V25.532H248.283V25.928H247.095V8.324H247.491V25.532H248.283V24.704H248.679V25.532H249.471V23.912H249.867V25.532H250.299V25.136H250.695V24.308H251.091V25.136H251.667V23.912H252.099V20.312H251.667V19.52H252.099V19.124H251.667V17.504H252.099V17.108H251.667V16.712H252.099V8.324H249.075ZM249.075 19.916H248.679V19.124H248.283V22.724H248.679V21.932H249.075V19.916ZM249.075 10.592H248.679V11.672H248.283V12.464H248.679V11.672H249.075V10.592ZM248.679 18.728V17.504H248.283V18.728H248.679ZM249.075 15.524H248.679V16.316H249.075V15.524ZM249.075 17.108V16.712H248.679V17.108H249.075ZM249.075 9.8H248.679V10.196H249.075V9.8ZM248.967 14.588V13.436H249.147V13.04H250.515V14.408H250.119V14.588H248.967ZM249.363 13.22V14.192H250.335V13.22H249.363ZM250.623 12.644H250.227V12.248H250.623V12.644ZM250.623 11.852H250.227V10.268H250.623V11.852ZM250.623 9.872H250.227V9.476H250.623V9.872ZM249.075 8.684H248.283V8.324H249.075V8.684ZM248.283 8.324H247.491V7.928H248.283V8.324ZM260.451 13.436V10.664H260.847V13.436H260.451ZM261.603 9.08H261.243V9.872H261.603V9.08ZM261.243 9.872H260.847V10.664H261.243V9.872ZM268.212 13.436V13.04H268.608V13.436H268.212ZM267.852 9.08V8.684H269.4V9.08H267.852ZM269.004 14.624V14.228H269.4V14.624H269.004ZM269.004 12.644V12.248H269.796V12.644H269.004ZM269.4 14.228V13.832H269.796V14.228H269.4ZM269.4 8.684V8.324H270.948V8.684H269.4ZM269.796 13.832V13.436H270.192V13.04H270.984V12.644H271.38V12.248H273.468V12.644H274.26V13.04H274.656V13.436H273.864V13.04H272.676V12.644H272.172V13.04H271.344V13.436H270.588V13.832H269.796ZM269.796 12.248V11.852H270.984V12.248H269.796ZM270.948 8.324V7.928H272.424V8.324H270.948ZM270.264 10.592V10.196H270.66V10.592H270.264ZM271.056 10.592V10.196H272.352V10.592H271.056ZM272.748 10.592V10.196H273.144V10.592H272.748ZM272.424 8.684V8.324H274.188V8.684H272.424ZM274.188 11.06V10.664H274.584V11.06H274.188ZM274.188 9.08V8.684H275.772V9.08H274.188ZM274.656 13.832V13.436H275.052V13.832H274.656ZM274.98 11.06V10.664H276.168V11.06H277.356V12.248H276.564V11.852H275.772V11.06H274.98ZM275.052 14.624V13.832H275.448V14.624H275.052ZM275.448 15.776V14.624H275.844V15.776H275.448ZM275.772 9.476V9.08H276.96V9.476H275.772ZM276.96 9.872V9.476H277.716V9.872H276.96ZM277.716 10.268V9.872H278.112V10.268H277.716ZM278.112 10.664V10.268H278.508V10.664H278.112ZM278.508 11.06V10.664H278.904V11.06H278.508ZM278.904 16.964V15.776H279.3V16.964H278.904ZM278.904 15.38V14.624H279.3V15.38H278.904ZM278.904 14.228V13.832H279.3V14.228H278.904ZM278.904 11.456V11.06H279.3V11.456H278.904ZM267.42 18.548V18.152H267.816V16.172H268.212V14.984H268.608V14.624H269.004V15.38H268.608V16.964H268.212V18.548H267.42ZM280.092 15.308V13.832H279.696V12.248H279.3V11.456H279.696V11.852H280.092V13.04H280.488V15.308H280.092ZM275.844 18.08V15.776H276.24V18.08H275.844ZM280.884 25.604V18.692L280.488 18.404L280.596 17.972L281.28 18.296V25.604H280.884ZM280.092 18.008V15.992H280.488V15.2H280.884V18.8H280.488V18.008H280.092ZM279.3 23.336V22.94H279.696V22.148H280.092V22.94H279.696V23.336H279.3ZM279.696 19.124H280.092V20.348H279.696V19.124ZM279.3 21.752V20.96H279.696V21.752H279.3ZM279.3 20.168H279.696V20.564H279.3V20.168ZM279.3 24.128V23.732H279.696V24.128H279.3ZM279.696 14.336H280.092V14.732H279.696V14.336ZM279.3 26H275.88V16.316L276.276 16.712V19.952H276.708V20.348H276.276V20.744H276.708V21.536H276.276V21.932H276.708V23.552H276.276V23.948H276.708V24.344H276.276V25.604H279.3V26ZM264.684 8.324V7.928H268.104V24.308H267.708V25.928H267.096V25.532H266.7V25.928H264.288V25.532H263.892V25.928H262.704V8.324H263.1V25.532H263.892V24.704H264.288V25.532H265.08V23.912H265.476V25.532H265.908V25.136H266.304V24.308H266.7V25.136H267.276V23.912H267.708V20.312H267.276V19.52H267.708V19.124H267.276V17.504H267.708V17.108H267.276V16.712H267.708V8.324H264.684ZM264.684 19.916H264.288V19.124H263.892V22.724H264.288V21.932H264.684V19.916ZM264.684 10.592H264.288V11.672H263.892V12.464H264.288V11.672H264.684V10.592ZM264.288 18.728V17.504H263.892V18.728H264.288ZM264.684 15.524H264.288V16.316H264.684V15.524ZM264.684 17.108V16.712H264.288V17.108H264.684ZM264.684 9.8H264.288V10.196H264.684V9.8ZM264.576 14.588V13.436H264.756V13.04H266.124V14.408H265.728V14.588H264.576ZM264.972 13.22V14.192H265.944V13.22H264.972ZM266.232 12.644H265.836V12.248H266.232V12.644ZM266.232 11.852H265.836V10.268H266.232V11.852ZM266.232 9.872H265.836V9.476H266.232V9.872ZM264.684 8.684H263.892V8.324H264.684V8.684ZM263.892 8.324H263.1V7.928H263.892V8.324ZM277.752 21.284H278.148V21.68H277.752V21.284ZM277.752 22.076H278.148V23.66H277.752V22.076ZM277.752 24.056H278.148V24.452H277.752V24.056ZM279.3 25.244H280.092V25.604H279.3V25.244ZM280.092 25.604H280.884V26H280.092V25.604ZM302.577 16.748V20.168H283.929V19.772H282.309V19.16H282.705V18.764H282.309V16.352H282.705V15.956H282.309V14.768H302.181V15.164H282.705V15.956H283.533V16.352H282.705V17.144H284.325V17.54H282.705V17.972H283.101V18.368H283.929V18.764H283.101V19.34H284.325V19.772H287.925V19.34H288.717V19.772H289.113V19.34H290.733V19.772H291.129V19.34H291.525V19.772H302.181V16.748H302.577ZM290.589 16.748H288.573V16.352H287.781V15.956H291.381V16.352H290.589V16.748ZM296.601 16.748H295.737V16.352H294.945V15.956H295.737V16.352H296.601V16.748ZM293.685 16.748H292.893V16.352H293.685V16.748ZM292.929 16.748H292.533V16.352H292.929V16.748ZM285.441 17.864V16.712H285.621V16.316H286.989V17.684H286.593V17.864H285.441ZM285.837 16.496V17.468H286.809V16.496H285.837ZM301.785 16.748V15.956H302.145V16.748H301.785ZM302.145 15.956V15.164H302.541V15.956H302.145ZM299.373 21.68H291.129V21.284H290.337V20.888H289.941V20.492H290.733V20.888H291.921V21.284H299.373V21.68ZM300.093 25.604V26H292.173V25.604H300.093ZM293.937 23.336V23.732H292.245V23.336H293.937ZM291.849 23.336V23.732H291.453V23.336H291.849ZM292.173 25.244V25.604H290.409V25.244H292.173ZM290.409 22.868V23.264H290.013V22.868H290.409ZM290.409 24.848V25.244H288.825V24.848H290.409ZM289.941 20.096V20.492H289.545V20.096H289.941ZM289.617 22.868V23.264H288.429V22.868H287.241V21.68H288.033V22.076H288.825V22.868H289.617ZM289.545 19.304V20.096H289.149V19.304H289.545ZM288.825 24.452V24.848H287.637V24.452H288.825ZM287.637 24.056V24.452H286.881V24.056H287.637ZM286.881 23.66V24.056H286.485V23.66H286.881ZM286.485 23.264V23.66H286.089V23.264H286.485ZM286.089 22.868V23.264H285.693V22.868H286.089ZM285.693 22.472V22.868H285.297V22.472H285.693ZM284.505 19.772V20.096H284.901V21.68H285.297V22.472H284.901V22.076H284.505V20.888H284.109V19.772H284.505ZM299.301 21.68H299.697V24.02H299.301V21.68ZM288.717 13.508V13.112H289.113V13.508H288.717ZM288.357 9.152V8.756H289.905V9.152H288.357ZM289.509 14.696V14.3H289.905V14.696H289.509ZM289.509 12.716V12.32H290.301V12.716H289.509ZM289.905 14.3V13.904H290.301V14.3H289.905ZM289.905 8.756V8.396H291.453V8.756H289.905ZM290.301 13.904V13.508H290.697V13.112H291.489V12.716H291.885V12.32H295.053V12.716H295.845V13.112H296.241V13.508H295.449V13.112H294.261V12.716H292.677V13.112H291.849V13.508H291.093V13.904H290.301ZM290.301 12.32V11.924H291.489V12.32H290.301ZM291.453 8.396V8H294.009V8.396H291.453ZM290.769 10.664V10.268H291.165V10.664H290.769ZM291.561 10.664V10.268H293.937V10.664H291.561ZM294.333 10.664V10.268H294.729V10.664H294.333ZM294.009 8.756V8.396H295.773V8.756H294.009ZM298.221 12.104V11.708H298.617V12.104H298.221ZM296.241 13.904V13.508H296.637V13.904H296.241ZM296.637 14.696V13.904H297.033V14.696H296.637ZM297.033 14.696H297.429H297.033ZM286.737 14.66H286.341V14.264H286.737V14.66ZM284.757 14.66H284.109V13.076H284.757V14.66ZM286.737 13.868H286.341V12.68H286.737V11.492H287.925V12.284H287.529V13.076H286.737V13.868ZM285.153 13.076H284.757V11.888H285.153V13.076ZM285.549 11.888H285.153V11.132H285.549V11.888ZM285.945 11.132H285.549V10.736H285.945V11.132ZM286.341 10.736H285.945V10.34H286.341V10.736ZM286.737 10.34H286.341V9.944H286.737V10.34ZM291.057 9.944H290.301V9.548H291.057V9.944ZM289.905 9.944H289.509V9.548H289.905V9.944ZM287.133 9.944H286.737V9.548H287.133V9.944ZM289.509 9.152H287.925V9.548H287.133V9.152H287.529V8.756H288.717C288.717 8.684 288.789 8.648 288.933 8.648C289.221 8.648 289.389 8.672 289.437 8.72C289.485 8.768 289.509 8.912 289.509 9.152ZM300.273 11.924V10.808H300.669V11.924H300.273ZM299.877 10.808V10.412H300.273V10.808H299.877ZM299.481 10.412V10.016H299.877V10.412H299.481ZM299.085 10.016V9.62H299.481V10.016H299.085ZM294.765 9.62V9.224H295.521V9.62H294.765ZM297.789 11.672V10.988H298.185V11.672H297.789ZM298.689 9.62V9.224H299.085V9.62H298.689ZM295.665 8.432H297.105H298.293V8.828H298.689V9.224H297.897V8.828H295.665V8.432ZM301.065 15.02V12.896H301.461V15.02H301.065ZM300.669 12.896V11.924H301.065V12.896H300.669ZM300.453 25.604V24.812H300.093V25.604H300.453ZM300.093 24.812V24.02H299.697V24.812H300.093ZM298.329 17.864V16.712H298.509V16.316H299.877V17.684H299.481V17.864H298.329ZM298.725 16.496V17.468H299.697V16.496H298.725ZM308.233 29.492H308.629V29.888H308.233V29.492ZM307.873 33.848H309.421V34.244H307.873V33.848ZM309.025 28.304H309.421V28.7H309.025V28.304ZM309.025 30.284H309.817V30.68H309.025V30.284ZM309.421 28.7H309.817V29.096H309.421V28.7ZM309.421 34.244H310.969V34.604H309.421V34.244ZM309.817 29.096H310.609V29.492H311.365V29.888H312.193V30.284H313.777V29.888H314.965V29.492H315.757V29.888H315.361V30.284H314.569V30.68H311.401V30.284H311.005V29.888H310.213V29.492H309.817V29.096ZM309.817 30.68H311.005V31.076H309.817V30.68ZM310.969 34.604H313.525V35H310.969V34.604ZM310.285 32.336H310.681V32.732H310.285V32.336ZM311.077 32.336H313.453V32.732H311.077V32.336ZM313.849 32.336H314.245V32.732H313.849V32.336ZM313.525 34.244H315.289V34.604H313.525V34.244ZM315.289 31.868H315.685V32.264H315.289V31.868ZM315.289 33.848H316.873V34.244H315.289V33.848ZM315.757 29.096H316.153V29.492H315.757V29.096ZM316.153 28.304H316.549V29.096H316.153V28.304ZM316.549 27.152H316.945V28.304H316.549V27.152ZM316.873 33.452H318.061V33.848H316.873V33.452ZM318.061 33.056H318.817V33.452H318.061V33.056ZM318.817 32.66H319.213V33.056H318.817V32.66ZM319.213 32.264H319.609V32.66H319.213V32.264ZM319.609 31.868H320.005V32.264H319.609V31.868ZM320.005 27.548H320.401V28.304H320.005V27.548ZM320.005 28.7H320.401V29.096H320.005V28.7ZM320.005 31.472H320.401V31.868H320.005V31.472ZM321.193 27.62H321.913V29.888H321.517V31.076H321.121V31.472H320.401V30.68H320.797V29.096H321.193V27.62ZM321.517 27.728V26H322.129V27.728H321.517ZM318.385 28.304V27.908H318.781V28.304H318.385ZM318.385 27.512V23.48H318.781V27.512H318.385ZM305.281 30.608V31.724H304.885V30.608H305.281ZM305.677 31.724V32.12H305.281V31.724H305.677ZM306.073 32.12V32.516H305.677V32.12H306.073ZM306.469 32.516V32.912H306.073V32.516H306.469ZM310.789 32.912V33.308H310.033V32.912H310.789ZM309.637 32.912V33.308H309.241V32.912H309.637ZM306.865 32.912V33.308H306.469V32.912H306.865ZM308.665 34.208C308.521 34.208 308.449 34.172 308.449 34.1H307.261V33.704H306.865V33.308H307.657V33.704H309.241C309.241 33.944 309.217 34.088 309.169 34.136C309.121 34.184 308.953 34.208 308.665 34.208ZM307.261 27.8V28.196H306.073V27.8H307.261ZM306.073 28.196V28.592H304.849V28.196H306.073ZM304.849 28.592V30.716H304.453V28.592H304.849ZM308.989 28.268V27.908C308.989 27.908 308.977 27.908 308.953 27.908C308.929 27.884 308.857 27.872 308.737 27.872V27.404H307.261V27.8H308.341V28.268H308.989ZM317.197 20.492V20.888H316.801V20.492H317.197ZM317.557 24.848V25.244H316.009V24.848H317.557ZM316.405 19.304V19.7H316.009V19.304H316.405ZM316.405 21.284V21.68H315.613V21.284H316.405ZM316.009 19.7V20.096H315.613V19.7H316.009ZM316.009 25.244V25.604H314.461V25.244H316.009ZM315.613 20.096V20.492H315.217V20.888H314.425V21.284H314.029V21.68H311.581V21.284H310.789V20.888H310.393V20.492H311.185V20.888H312.373V21.284H313.237V20.888H314.065V20.492H314.821V20.096H315.613ZM315.613 21.68V22.076H314.425V21.68H315.613ZM314.461 25.604V26H312.625V25.604H314.461ZM315.145 23.336V23.732H314.749V23.336H315.145ZM314.353 23.336V23.732H312.697V23.336H314.353ZM312.301 23.336V23.732H311.905V23.336H312.301ZM312.625 25.244V25.604H310.861V25.244H312.625ZM310.861 22.868V23.264H310.465V22.868H310.861ZM310.861 24.848V25.244H309.277V24.848H310.861ZM310.393 20.096V20.492H309.997V20.096H310.393ZM310.069 22.868V23.264H308.881V22.868H307.693V21.68H308.485V22.076H309.277V22.868H310.069ZM309.997 19.304V20.096H309.601V19.304H309.997ZM309.601 18.152V19.304H309.205V18.152H309.601ZM309.277 24.452V24.848H308.089V24.452H309.277ZM308.089 24.056V24.452H307.333V24.056H308.089ZM307.333 23.66V24.056H306.937V23.66H307.333ZM306.937 23.264V23.66H306.541V23.264H306.937ZM306.541 22.868V23.264H306.145V22.868H306.541ZM306.145 16.964V18.152H305.749V16.964H306.145ZM306.145 18.548V19.304H305.749V18.548H306.145ZM306.145 19.7V20.096H305.749V19.7H306.145ZM306.145 22.472V22.868H305.749V22.472H306.145ZM317.989 15.38V15.776H317.593V17.756H317.197V18.944H316.801V19.304H316.405V18.548H316.801V16.964H317.197V15.38H317.989ZM304.957 18.62V20.096H305.353V21.68H305.749V22.472H305.353V22.076H304.957V20.888H304.561V18.62H304.957ZM309.205 15.848V18.152H308.809V15.848H309.205ZM304.165 8.324V15.236L304.561 15.524L304.453 15.632H303.769V8.324H304.165ZM304.957 15.92V17.936H304.561V18.728H304.165V15.128H304.561V15.92H304.957ZM305.749 10.592V10.988H305.353V11.78H304.957V10.988H305.353V10.592H305.749ZM305.353 14.804H304.957V13.58H305.353V14.804ZM305.749 12.176V12.968H305.353V12.176H305.749ZM305.749 13.76H305.353V13.364H305.749V13.76ZM305.749 9.8V10.196H305.353V9.8H305.749ZM305.353 19.592H304.957V19.196H305.353V19.592ZM305.749 7.928H309.169V17.612L308.773 17.216V13.976H308.341V13.58H308.773C308.773 13.508 308.785 13.436 308.809 13.364C308.833 13.292 308.821 13.232 308.773 13.184C308.749 13.16 308.701 13.148 308.629 13.148C308.581 13.148 308.533 13.16 308.485 13.184C308.437 13.184 308.389 13.184 308.341 13.184V12.392H308.773V11.996H308.341V10.376H308.773V9.98H308.341V9.584H308.773V8.324H305.749V7.928ZM307.297 12.644H306.901V12.248H307.297V12.644ZM307.297 11.852H306.901V10.268H307.297V11.852ZM307.297 9.872H306.901V9.476H307.297V9.872ZM305.749 8.684H304.957V8.324H305.749V8.684ZM304.957 8.324H304.165V7.928H304.957V8.324ZM320.365 15.128H320.761V15.92H321.157V12.32H320.761V13.112H320.365V15.128ZM320.365 24.056H320.761V22.472H321.157V20.6H320.761V22.472H320.365V24.056ZM320.761 16.316V17.54H321.157V16.316H320.761ZM320.365 20.204H320.761V19.412H320.365V20.204ZM321.157 11.132V10.34H320.761V11.132H321.157ZM320.365 18.62V19.016H320.761V18.62H320.365ZM320.365 24.848H320.761V24.452H320.365V24.848ZM320.761 11.528V11.924H321.157V11.528H320.761ZM317.341 26H316.945V9.62H317.341V8H317.953V8.396H318.349V8H320.761V8.396H321.157V8H322.345V26H321.949V8.396H321.157V9.224H320.761V8.396H319.969V10.016H319.573V8.396H319.141V8.792H318.745V9.62H318.349V8.792H317.773V10.016H317.341V11.6H317.773V12.824H317.341V13.22H317.773V13.616H317.341V15.704H317.773V16.1H317.341V16.496H317.773V17.288H317.341V17.684H317.773V20.384H317.341V20.78H317.773V21.176H317.341V26Z" fill="black"/>
</svg>
